<?xml version="1.0" encoding="us-ascii" standalone="no"?><svg xmlns="http://www.w3.org/2000/svg" xmlns:xlink="http://www.w3.org/1999/xlink" contentStyleType="text/css" height="1281px" preserveAspectRatio="none" style="width:1521px;height:1281px;background:#FFFFFF;" version="1.1" viewBox="0 0 1521 1281" width="1521px" zoomAndPan="magnify"><defs><filter height="300%" id="f1lxckqdh4vlez" width="300%" x="-1" y="-1"><feGaussianBlur result="blurOut" stdDeviation="2.0"/><feColorMatrix in="blurOut" result="blurOut2" type="matrix" values="0 0 0 0 0 0 0 0 0 0 0 0 0 0 0 0 0 0 .4 0"/><feOffset dx="4.0" dy="4.0" in="blurOut2" result="blurOut3"/><feBlend in="SourceGraphic" in2="blurOut3" mode="normal"/></filter></defs><g><text fill="#000000" font-family="sans-serif" font-size="14" font-weight="bold" lengthAdjust="spacing" textLength="278" x="616.5" y="27.9951">OAuth 2.0 Authorization Code Flow</text><rect fill="#ADD8E6" height="1232.1719" style="stroke:#A80036;stroke-width:1.0;" width="398" x="154.5" y="43.2969"/><text fill="#000000" font-family="sans-serif" font-size="13" font-weight="bold" lengthAdjust="spacing" textLength="69" x="319" y="55.3638">3rd party</text><rect fill="#90EE90" height="1232.1719" style="stroke:#A80036;stroke-width:1.0;" width="509" x="767.5" y="43.2969"/><text fill="#000000" font-family="sans-serif" font-size="13" font-weight="bold" lengthAdjust="spacing" textLength="108" x="968" y="55.3638">Open Platform</text><line style="stroke:#A80036;stroke-width:1.0;stroke-dasharray:5.0,5.0;" x1="68" x2="68" y1="141.8906" y2="1172.875"/><line style="stroke:#A80036;stroke-width:1.0;stroke-dasharray:5.0,5.0;" x1="232.5" x2="232.5" y1="141.8906" y2="1172.875"/><line style="stroke:#A80036;stroke-width:1.0;stroke-dasharray:5.0,5.0;" x1="482.5" x2="482.5" y1="141.8906" y2="1172.875"/><line style="stroke:#A80036;stroke-width:1.0;stroke-dasharray:5.0,5.0;" x1="849.5" x2="849.5" y1="141.8906" y2="1172.875"/><line style="stroke:#A80036;stroke-width:1.0;stroke-dasharray:5.0,5.0;" x1="1205.5" x2="1205.5" y1="141.8906" y2="1172.875"/><text fill="#000000" font-family="sans-serif" font-size="14" lengthAdjust="spacing" textLength="32" x="47" y="122.292">User</text><text fill="#000000" font-family="sans-serif" font-size="14" lengthAdjust="spacing" textLength="116" x="9" y="138.5889">Resource Owner</text><ellipse cx="68" cy="52.2969" fill="#FEFECE" filter="url(#f1lxckqdh4vlez)" rx="8" ry="8" style="stroke:#A80036;stroke-width:2.0;"/><path d="M68,60.2969 L68,87.2969 M55,68.2969 L81,68.2969 M68,87.2969 L55,102.2969 M68,87.2969 L81,102.2969 " fill="none" filter="url(#f1lxckqdh4vlez)" style="stroke:#A80036;stroke-width:2.0;"/><text fill="#000000" font-family="sans-serif" font-size="14" lengthAdjust="spacing" textLength="32" x="47" y="1184.8701">User</text><text fill="#000000" font-family="sans-serif" font-size="14" lengthAdjust="spacing" textLength="116" x="9" y="1201.167">Resource Owner</text><ellipse cx="68" cy="1214.4688" fill="#FEFECE" filter="url(#f1lxckqdh4vlez)" rx="8" ry="8" style="stroke:#A80036;stroke-width:2.0;"/><path d="M68,1222.4688 L68,1249.4688 M55,1230.4688 L81,1230.4688 M68,1249.4688 L55,1264.4688 M68,1249.4688 L81,1264.4688 " fill="none" filter="url(#f1lxckqdh4vlez)" style="stroke:#A80036;stroke-width:2.0;"/><rect fill="#FEFECE" filter="url(#f1lxckqdh4vlez)" height="46.5938" style="stroke:#A80036;stroke-width:1.5;" width="145" x="158.5" y="90.2969"/><text fill="#000000" font-family="sans-serif" font-size="14" lengthAdjust="spacing" textLength="127" x="165.5" y="110.292">3rd Party Web App</text><text fill="#000000" font-family="sans-serif" font-size="14" lengthAdjust="spacing" textLength="39" x="213.5" y="126.5889">Client</text><rect fill="#FEFECE" filter="url(#f1lxckqdh4vlez)" height="46.5938" style="stroke:#A80036;stroke-width:1.5;" width="145" x="158.5" y="1171.875"/><text fill="#000000" font-family="sans-serif" font-size="14" lengthAdjust="spacing" textLength="127" x="165.5" y="1191.8701">3rd Party Web App</text><text fill="#000000" font-family="sans-serif" font-size="14" lengthAdjust="spacing" textLength="39" x="213.5" y="1208.167">Client</text><rect fill="#FEFECE" filter="url(#f1lxckqdh4vlez)" height="46.5938" style="stroke:#A80036;stroke-width:1.5;" width="127" x="417.5" y="90.2969"/><text fill="#000000" font-family="sans-serif" font-size="14" lengthAdjust="spacing" textLength="109" x="424.5" y="110.292">3rd Party Server</text><text fill="#000000" font-family="sans-serif" font-size="14" lengthAdjust="spacing" textLength="92" x="437" y="126.5889">App Backend</text><rect fill="#FEFECE" filter="url(#f1lxckqdh4vlez)" height="46.5938" style="stroke:#A80036;stroke-width:1.5;" width="127" x="417.5" y="1171.875"/><text fill="#000000" font-family="sans-serif" font-size="14" lengthAdjust="spacing" textLength="109" x="424.5" y="1191.8701">3rd Party Server</text><text fill="#000000" font-family="sans-serif" font-size="14" lengthAdjust="spacing" textLength="92" x="437" y="1208.167">App Backend</text><rect fill="#FEFECE" filter="url(#f1lxckqdh4vlez)" height="30.2969" style="stroke:#A80036;stroke-width:1.5;" width="153" x="771.5" y="106.5938"/><text fill="#000000" font-family="sans-serif" font-size="14" lengthAdjust="spacing" textLength="139" x="778.5" y="126.5889">Authorization Server</text><rect fill="#FEFECE" filter="url(#f1lxckqdh4vlez)" height="30.2969" style="stroke:#A80036;stroke-width:1.5;" width="153" x="771.5" y="1171.875"/><text fill="#000000" font-family="sans-serif" font-size="14" lengthAdjust="spacing" textLength="139" x="778.5" y="1191.8701">Authorization Server</text><rect fill="#FEFECE" filter="url(#f1lxckqdh4vlez)" height="30.2969" style="stroke:#A80036;stroke-width:1.5;" width="129" x="1139.5" y="106.5938"/><text fill="#000000" font-family="sans-serif" font-size="14" lengthAdjust="spacing" textLength="115" x="1146.5" y="126.5889">Resource Server</text><rect fill="#FEFECE" filter="url(#f1lxckqdh4vlez)" height="30.2969" style="stroke:#A80036;stroke-width:1.5;" width="129" x="1139.5" y="1171.875"/><text fill="#000000" font-family="sans-serif" font-size="14" lengthAdjust="spacing" textLength="115" x="1146.5" y="1191.8701">Resource Server</text><rect fill="#EEEEEE" filter="url(#f1lxckqdh4vlez)" height="3" style="stroke:#EEEEEE;stroke-width:1.0;" width="1512" x="0" y="172.457"/><line style="stroke:#000000;stroke-width:1.0;" x1="0" x2="1512" y1="172.457" y2="172.457"/><line style="stroke:#000000;stroke-width:1.0;" x1="0" x2="1512" y1="175.457" y2="175.457"/><rect fill="#EEEEEE" filter="url(#f1lxckqdh4vlez)" height="23.1328" style="stroke:#000000;stroke-width:2.0;" width="198" x="657" y="161.8906"/><text fill="#000000" font-family="sans-serif" font-size="13" font-weight="bold" lengthAdjust="spacing" textLength="184" x="663" y="177.9575">Issue Authorization Code</text><polygon fill="#A80036" points="221,212.1563,231,216.1563,221,220.1563,225,216.1563" style="stroke:#A80036;stroke-width:1.0;"/><line style="stroke:#A80036;stroke-width:1.0;" x1="68" x2="227" y1="216.1563" y2="216.1563"/><text fill="#000000" font-family="sans-serif" font-size="13" font-weight="bold" lengthAdjust="spacing" textLength="9" x="75" y="211.0903">1</text><text fill="#000000" font-family="sans-serif" font-size="13" lengthAdjust="spacing" textLength="61" x="88" y="211.0903">Start App</text><line style="stroke:#A80036;stroke-width:1.0;" x1="233" x2="275" y1="245.2891" y2="245.2891"/><line style="stroke:#A80036;stroke-width:1.0;" x1="275" x2="275" y1="245.2891" y2="258.2891"/><line style="stroke:#A80036;stroke-width:1.0;" x1="234" x2="275" y1="258.2891" y2="258.2891"/><polygon fill="#A80036" points="244,254.2891,234,258.2891,244,262.2891,240,258.2891" style="stroke:#A80036;stroke-width:1.0;"/><text fill="#000000" font-family="sans-serif" font-size="13" font-weight="bold" lengthAdjust="spacing" textLength="9" x="240" y="240.2231">2</text><text fill="#000000" font-family="sans-serif" font-size="13" lengthAdjust="spacing" textLength="126" x="253" y="240.2231">Guided to authorize</text><polygon fill="#A80036" points="838,283.4219,848,287.4219,838,291.4219,842,287.4219" style="stroke:#A80036;stroke-width:1.0;"/><line style="stroke:#A80036;stroke-width:1.0;" x1="233" x2="844" y1="287.4219" y2="287.4219"/><text fill="#000000" font-family="sans-serif" font-size="13" font-weight="bold" lengthAdjust="spacing" textLength="9" x="240" y="282.356">3</text><text fill="#000000" font-family="sans-serif" font-size="13" lengthAdjust="spacing" textLength="154" x="253" y="282.356">Redirect to Auth Service</text><line style="stroke:#A80036;stroke-width:1.0;" x1="850" x2="892" y1="331.6875" y2="331.6875"/><line style="stroke:#A80036;stroke-width:1.0;" x1="892" x2="892" y1="331.6875" y2="344.6875"/><line style="stroke:#A80036;stroke-width:1.0;" x1="851" x2="892" y1="344.6875" y2="344.6875"/><polygon fill="#A80036" points="861,340.6875,851,344.6875,861,348.6875,857,344.6875" style="stroke:#A80036;stroke-width:1.0;"/><text fill="#000000" font-family="sans-serif" font-size="13" font-weight="bold" lengthAdjust="spacing" textLength="9" x="857" y="319.0552">4</text><text fill="#000000" font-family="sans-serif" font-size="13" lengthAdjust="spacing" textLength="191" x="870" y="311.4888">Validate 3rd party complaince</text><text fill="#000000" font-family="sans-serif" font-size="13" lengthAdjust="spacing" textLength="128" x="874" y="326.6216">Validate redirect_url</text><line style="stroke:#A80036;stroke-width:1.0;" x1="850" x2="892" y1="373.8203" y2="373.8203"/><line style="stroke:#A80036;stroke-width:1.0;" x1="892" x2="892" y1="373.8203" y2="386.8203"/><line style="stroke:#A80036;stroke-width:1.0;" x1="851" x2="892" y1="386.8203" y2="386.8203"/><polygon fill="#A80036" points="861,382.8203,851,386.8203,861,390.8203,857,386.8203" style="stroke:#A80036;stroke-width:1.0;"/><text fill="#000000" font-family="sans-serif" font-size="13" font-weight="bold" lengthAdjust="spacing" textLength="9" x="857" y="368.7544">5</text><text fill="#000000" font-family="sans-serif" font-size="13" lengthAdjust="spacing" textLength="162" x="870" y="368.7544">Validate user login status</text><line style="stroke:#A80036;stroke-width:1.0;" x1="850" x2="892" y1="415.9531" y2="415.9531"/><line style="stroke:#A80036;stroke-width:1.0;" x1="892" x2="892" y1="415.9531" y2="428.9531"/><line style="stroke:#A80036;stroke-width:1.0;" x1="851" x2="892" y1="428.9531" y2="428.9531"/><polygon fill="#A80036" points="861,424.9531,851,428.9531,861,432.9531,857,428.9531" style="stroke:#A80036;stroke-width:1.0;"/><text fill="#000000" font-family="sans-serif" font-size="13" font-weight="bold" lengthAdjust="spacing" textLength="9" x="857" y="410.8872">6</text><text fill="#000000" font-family="sans-serif" font-size="13" lengthAdjust="spacing" textLength="163" x="870" y="410.8872">Validate 3rd party scopes</text><line style="stroke:#A80036;stroke-width:1.0;" x1="850" x2="892" y1="458.0859" y2="458.0859"/><line style="stroke:#A80036;stroke-width:1.0;" x1="892" x2="892" y1="458.0859" y2="471.0859"/><line style="stroke:#A80036;stroke-width:1.0;" x1="851" x2="892" y1="471.0859" y2="471.0859"/><polygon fill="#A80036" points="861,467.0859,851,471.0859,861,475.0859,857,471.0859" style="stroke:#A80036;stroke-width:1.0;"/><text fill="#000000" font-family="sans-serif" font-size="13" font-weight="bold" lengthAdjust="spacing" textLength="9" x="857" y="453.02">7</text><text fill="#000000" font-family="sans-serif" font-size="13" lengthAdjust="spacing" textLength="184" x="870" y="453.02">Generate authorization page</text><polygon fill="#A80036" points="244,496.2188,234,500.2188,244,504.2188,240,500.2188" style="stroke:#A80036;stroke-width:1.0;"/><line style="stroke:#A80036;stroke-width:1.0;stroke-dasharray:2.0,2.0;" x1="238" x2="849" y1="500.2188" y2="500.2188"/><text fill="#000000" font-family="sans-serif" font-size="13" font-weight="bold" lengthAdjust="spacing" textLength="9" x="250" y="495.1528">8</text><text fill="#000000" font-family="sans-serif" font-size="13" lengthAdjust="spacing" textLength="119" x="263" y="495.1528">Render Login page</text><polygon fill="#A80036" points="221,525.3516,231,529.3516,221,533.3516,225,529.3516" style="stroke:#A80036;stroke-width:1.0;"/><line style="stroke:#A80036;stroke-width:1.0;" x1="68" x2="227" y1="529.3516" y2="529.3516"/><text fill="#000000" font-family="sans-serif" font-size="13" font-weight="bold" lengthAdjust="spacing" textLength="9" x="75" y="524.2856">9</text><text fill="#000000" font-family="sans-serif" font-size="13" lengthAdjust="spacing" textLength="99" x="88" y="524.2856">Input credential</text><polygon fill="#A80036" points="838,554.4844,848,558.4844,838,562.4844,842,558.4844" style="stroke:#A80036;stroke-width:1.0;"/><line style="stroke:#A80036;stroke-width:1.0;" x1="233" x2="844" y1="558.4844" y2="558.4844"/><text fill="#000000" font-family="sans-serif" font-size="13" font-weight="bold" lengthAdjust="spacing" textLength="18" x="240" y="553.4185">10</text><text fill="#000000" font-family="sans-serif" font-size="13" lengthAdjust="spacing" textLength="61" x="262" y="553.4185">Authorize</text><line style="stroke:#A80036;stroke-width:1.0;" x1="850" x2="892" y1="587.6172" y2="587.6172"/><line style="stroke:#A80036;stroke-width:1.0;" x1="892" x2="892" y1="587.6172" y2="600.6172"/><line style="stroke:#A80036;stroke-width:1.0;" x1="851" x2="892" y1="600.6172" y2="600.6172"/><polygon fill="#A80036" points="861,596.6172,851,600.6172,861,604.6172,857,600.6172" style="stroke:#A80036;stroke-width:1.0;"/><text fill="#000000" font-family="sans-serif" font-size="13" font-weight="bold" lengthAdjust="spacing" textLength="18" x="857" y="582.5513">11</text><text fill="#000000" font-family="sans-serif" font-size="13" lengthAdjust="spacing" textLength="293" x="879" y="582.5513">Validate user's scopes with 3rd party's scopes</text><line style="stroke:#A80036;stroke-width:1.0;" x1="850" x2="892" y1="635.8164" y2="635.8164"/><line style="stroke:#A80036;stroke-width:1.0;" x1="892" x2="892" y1="635.8164" y2="648.8164"/><line style="stroke:#A80036;stroke-width:1.0;" x1="851" x2="892" y1="648.8164" y2="648.8164"/><polygon fill="#A80036" points="861,644.8164,851,648.8164,861,652.8164,857,648.8164" style="stroke:#A80036;stroke-width:1.0;"/><text fill="#000000" font-family="sans-serif" font-size="13" font-weight="bold" lengthAdjust="spacing" textLength="18" x="857" y="630.7505">12</text><text fill="#000000" font-family="sans-serif" font-size="13" lengthAdjust="spacing" textLength="170" x="879" y="630.7505">Genere authorization code</text><path d="M1061,613.6172 L1061,653.6172 L1498,653.6172 L1498,623.6172 L1488,613.6172 L1061,613.6172 " fill="#FBFB77" filter="url(#f1lxckqdh4vlez)" style="stroke:#A80036;stroke-width:1.0;"/><path d="M1488,613.6172 L1488,623.6172 L1498,623.6172 L1488,613.6172 " fill="#FBFB77" style="stroke:#A80036;stroke-width:1.0;"/><text fill="#000000" font-family="sans-serif" font-size="13" lengthAdjust="spacing" textLength="127" x="1067" y="630.6841">1.Give a expiry date</text><text fill="#000000" font-family="sans-serif" font-size="13" lengthAdjust="spacing" textLength="416" x="1067" y="645.8169">2.Store the releationship of authorization code and user's scopes</text><polygon fill="#A80036" points="244,680.0156,234,684.0156,244,688.0156,240,684.0156" style="stroke:#A80036;stroke-width:1.0;"/><line style="stroke:#A80036;stroke-width:1.0;stroke-dasharray:2.0,2.0;" x1="238" x2="849" y1="684.0156" y2="684.0156"/><text fill="#000000" font-family="sans-serif" font-size="13" font-weight="bold" lengthAdjust="spacing" textLength="18" x="250" y="678.9497">13</text><text fill="#000000" font-family="sans-serif" font-size="13" lengthAdjust="spacing" textLength="250" x="272" y="678.9497">Redirect to App with authorization code</text><polygon fill="#A80036" points="471,709.1484,481,713.1484,471,717.1484,475,713.1484" style="stroke:#A80036;stroke-width:1.0;"/><line style="stroke:#A80036;stroke-width:1.0;" x1="233" x2="477" y1="713.1484" y2="713.1484"/><text fill="#000000" font-family="sans-serif" font-size="13" font-weight="bold" lengthAdjust="spacing" textLength="18" x="240" y="708.0825">14</text><text fill="#000000" font-family="sans-serif" font-size="13" lengthAdjust="spacing" textLength="204" x="262" y="708.0825">Request with authorization code</text><line style="stroke:#A80036;stroke-width:1.0;" x1="483" x2="525" y1="742.2813" y2="742.2813"/><line style="stroke:#A80036;stroke-width:1.0;" x1="525" x2="525" y1="742.2813" y2="755.2813"/><line style="stroke:#A80036;stroke-width:1.0;" x1="484" x2="525" y1="755.2813" y2="755.2813"/><polygon fill="#A80036" points="494,751.2813,484,755.2813,494,759.2813,490,755.2813" style="stroke:#A80036;stroke-width:1.0;"/><text fill="#000000" font-family="sans-serif" font-size="13" font-weight="bold" lengthAdjust="spacing" textLength="18" x="490" y="737.2153">15</text><text fill="#000000" font-family="sans-serif" font-size="13" lengthAdjust="spacing" textLength="146" x="512" y="737.2153">Get authorization code</text><rect fill="#EEEEEE" filter="url(#f1lxckqdh4vlez)" height="3" style="stroke:#EEEEEE;stroke-width:1.0;" width="1512" x="0" y="783.8477"/><line style="stroke:#000000;stroke-width:1.0;" x1="0" x2="1512" y1="783.8477" y2="783.8477"/><line style="stroke:#000000;stroke-width:1.0;" x1="0" x2="1512" y1="786.8477" y2="786.8477"/><rect fill="#EEEEEE" filter="url(#f1lxckqdh4vlez)" height="23.1328" style="stroke:#000000;stroke-width:2.0;" width="187" x="662.5" y="773.2813"/><text fill="#000000" font-family="sans-serif" font-size="13" font-weight="bold" lengthAdjust="spacing" textLength="173" x="668.5" y="789.3481">Generate Access Token</text><polygon fill="#A80036" points="838,823.5469,848,827.5469,838,831.5469,842,827.5469" style="stroke:#A80036;stroke-width:1.0;"/><line style="stroke:#A80036;stroke-width:1.0;" x1="483" x2="844" y1="827.5469" y2="827.5469"/><text fill="#000000" font-family="sans-serif" font-size="13" font-weight="bold" lengthAdjust="spacing" textLength="18" x="490" y="822.481">16</text><text fill="#000000" font-family="sans-serif" font-size="13" lengthAdjust="spacing" textLength="321" x="512" y="822.481">Post to get acceess_token with authorization code</text><line style="stroke:#A80036;stroke-width:1.0;" x1="850" x2="892" y1="856.6797" y2="856.6797"/><line style="stroke:#A80036;stroke-width:1.0;" x1="892" x2="892" y1="856.6797" y2="869.6797"/><line style="stroke:#A80036;stroke-width:1.0;" x1="851" x2="892" y1="869.6797" y2="869.6797"/><polygon fill="#A80036" points="861,865.6797,851,869.6797,861,873.6797,857,869.6797" style="stroke:#A80036;stroke-width:1.0;"/><text fill="#000000" font-family="sans-serif" font-size="13" font-weight="bold" lengthAdjust="spacing" textLength="18" x="857" y="851.6138">17</text><text fill="#000000" font-family="sans-serif" font-size="13" lengthAdjust="spacing" textLength="320" x="879" y="851.6138">Validate 3rd party is exsting(app_id &amp; app_secret)</text><line style="stroke:#A80036;stroke-width:1.0;" x1="850" x2="892" y1="898.8125" y2="898.8125"/><line style="stroke:#A80036;stroke-width:1.0;" x1="892" x2="892" y1="898.8125" y2="911.8125"/><line style="stroke:#A80036;stroke-width:1.0;" x1="851" x2="892" y1="911.8125" y2="911.8125"/><polygon fill="#A80036" points="861,907.8125,851,911.8125,861,915.8125,857,911.8125" style="stroke:#A80036;stroke-width:1.0;"/><text fill="#000000" font-family="sans-serif" font-size="13" font-weight="bold" lengthAdjust="spacing" textLength="18" x="857" y="893.7466">18</text><text fill="#000000" font-family="sans-serif" font-size="13" lengthAdjust="spacing" textLength="222" x="879" y="893.7466">Validate authorization code is valid</text><path d="M1113,884.1797 L1113,909.1797 L1408,909.1797 L1408,894.1797 L1398,884.1797 L1113,884.1797 " fill="#FBFB77" filter="url(#f1lxckqdh4vlez)" style="stroke:#A80036;stroke-width:1.0;"/><path d="M1398,884.1797 L1398,894.1797 L1408,894.1797 L1398,884.1797 " fill="#FBFB77" style="stroke:#A80036;stroke-width:1.0;"/><text fill="#000000" font-family="sans-serif" font-size="13" lengthAdjust="spacing" textLength="274" x="1119" y="901.2466">Remove authorization code after validation</text><line style="stroke:#A80036;stroke-width:1.0;" x1="850" x2="892" y1="947.0117" y2="947.0117"/><line style="stroke:#A80036;stroke-width:1.0;" x1="892" x2="892" y1="947.0117" y2="960.0117"/><line style="stroke:#A80036;stroke-width:1.0;" x1="851" x2="892" y1="960.0117" y2="960.0117"/><polygon fill="#A80036" points="861,956.0117,851,960.0117,861,964.0117,857,960.0117" style="stroke:#A80036;stroke-width:1.0;"/><text fill="#000000" font-family="sans-serif" font-size="13" font-weight="bold" lengthAdjust="spacing" textLength="18" x="857" y="941.9458">19</text><text fill="#000000" font-family="sans-serif" font-size="13" lengthAdjust="spacing" textLength="258" x="879" y="941.9458">Generate access_token &amp; refresh_token</text><path d="M1149,924.8125 L1149,964.8125 L1467,964.8125 L1467,934.8125 L1457,924.8125 L1149,924.8125 " fill="#FBFB77" filter="url(#f1lxckqdh4vlez)" style="stroke:#A80036;stroke-width:1.0;"/><path d="M1457,924.8125 L1457,934.8125 L1467,934.8125 L1457,924.8125 " fill="#FBFB77" style="stroke:#A80036;stroke-width:1.0;"/><text fill="#000000" font-family="sans-serif" font-size="13" lengthAdjust="spacing" textLength="214" x="1155" y="941.8794">1.Set expires_in for access_token</text><text fill="#000000" font-family="sans-serif" font-size="13" lengthAdjust="spacing" textLength="297" x="1155" y="957.0122">2.Bind access_token with authorization scopes</text><polygon fill="#A80036" points="494,991.2109,484,995.2109,494,999.2109,490,995.2109" style="stroke:#A80036;stroke-width:1.0;"/><line style="stroke:#A80036;stroke-width:1.0;stroke-dasharray:2.0,2.0;" x1="488" x2="849" y1="995.2109" y2="995.2109"/><text fill="#000000" font-family="sans-serif" font-size="13" font-weight="bold" lengthAdjust="spacing" textLength="18" x="500" y="990.145">20</text><text fill="#000000" font-family="sans-serif" font-size="13" lengthAdjust="spacing" textLength="133" x="522" y="990.145">Return access_token</text><rect fill="#EEEEEE" filter="url(#f1lxckqdh4vlez)" height="3" style="stroke:#EEEEEE;stroke-width:1.0;" width="1512" x="0" y="1023.7773"/><line style="stroke:#000000;stroke-width:1.0;" x1="0" x2="1512" y1="1023.7773" y2="1023.7773"/><line style="stroke:#000000;stroke-width:1.0;" x1="0" x2="1512" y1="1026.7773" y2="1026.7773"/><rect fill="#EEEEEE" filter="url(#f1lxckqdh4vlez)" height="23.1328" style="stroke:#000000;stroke-width:2.0;" width="146" x="683" y="1013.2109"/><text fill="#000000" font-family="sans-serif" font-size="13" font-weight="bold" lengthAdjust="spacing" textLength="132" x="689" y="1029.2778">Get Resource Info</text><polygon fill="#A80036" points="1194,1063.4766,1204,1067.4766,1194,1071.4766,1198,1067.4766" style="stroke:#A80036;stroke-width:1.0;"/><line style="stroke:#A80036;stroke-width:1.0;" x1="483" x2="1200" y1="1067.4766" y2="1067.4766"/><text fill="#000000" font-family="sans-serif" font-size="13" font-weight="bold" lengthAdjust="spacing" textLength="18" x="490" y="1062.4106">21</text><text fill="#000000" font-family="sans-serif" font-size="13" lengthAdjust="spacing" textLength="345" x="512" y="1062.4106">Request resource server to get info with access_token</text><polygon fill="#A80036" points="494,1092.6094,484,1096.6094,494,1100.6094,490,1096.6094" style="stroke:#A80036;stroke-width:1.0;"/><line style="stroke:#A80036;stroke-width:1.0;stroke-dasharray:2.0,2.0;" x1="488" x2="1205" y1="1096.6094" y2="1096.6094"/><text fill="#000000" font-family="sans-serif" font-size="13" font-weight="bold" lengthAdjust="spacing" textLength="18" x="500" y="1091.5435">22</text><text fill="#000000" font-family="sans-serif" font-size="13" lengthAdjust="spacing" textLength="129" x="522" y="1091.5435">Reture resource info</text><polygon fill="#A80036" points="244,1121.7422,234,1125.7422,244,1129.7422,240,1125.7422" style="stroke:#A80036;stroke-width:1.0;"/><line style="stroke:#A80036;stroke-width:1.0;" x1="238" x2="482" y1="1125.7422" y2="1125.7422"/><text fill="#000000" font-family="sans-serif" font-size="13" font-weight="bold" lengthAdjust="spacing" textLength="18" x="250" y="1120.6763">23</text><text fill="#000000" font-family="sans-serif" font-size="13" lengthAdjust="spacing" textLength="132" x="272" y="1120.6763">Render resource info</text><polygon fill="#A80036" points="79,1150.875,69,1154.875,79,1158.875,75,1154.875" style="stroke:#A80036;stroke-width:1.0;"/><line style="stroke:#A80036;stroke-width:1.0;" x1="73" x2="232" y1="1154.875" y2="1154.875"/><text fill="#000000" font-family="sans-serif" font-size="13" font-weight="bold" lengthAdjust="spacing" textLength="18" x="85" y="1149.8091">24</text><text fill="#000000" font-family="sans-serif" font-size="13" lengthAdjust="spacing" textLength="119" x="107" y="1149.8091">show resource info</text><!--SRC=[bLN1RXen4BtxAqPKIjj3epQz8L69H2gA52bHQ9jB9MHs1x2osAuzXgHVtx5tsSLqISYDjTyyltdpR6GWeyDwZaxuHwN16Oz2aA8AON0x3hI2Y_FF47yOf_vAKaR3bIaHlbTcEn125cGS37vwTF1Rmprw4ro1SBlLw0OWFSGj8URc2GPVNGbMEdeUmBiRjLpHPHLGn1LLA2irrP2x2847dCFOsiXwLIdKbDXuvLZ15DscLX7BBcNnYBfCHVME4FmDBAHHSsjHmrqbQM7SUgTeuX1rVaBUVCrLQ-6DXZehQ4tOm-xM6dohP3IwzZvWZyEZaKYkVleM-nd2bFYCrB-8_UsM9q6LM08Pa0q5Te1Mu905bCfXGH6PvXetL171BUgmvfUiL2a9eHqS56PjAwaqTyT6jm3NiC-2gquX3B6poYmvSfua1Vys5Rum5hruIVi4EO2nIcREMhayQ7bdv3tFXBzlagWQblb_hMqWABXJpgAILQ_BuxqPdER2Uzzq0rl5KsbxRDTVRVAmnOB38xI9Kuc95b_E9sh38C0dgzmpnAF5nVcKBou2hUBmAaobVgKic4KF7qWER2OtHJYUSipDlRYnJwcv7fqx4xkO_WdewJY-Cw8pWNgHer6RWN5HeFVmm_2JmFUgtymxuvFSPUJZ0gwOKQnuGVnRGgiyJy2JqiiFqjgPAk4CuW-F72hwU0fPps2OTHEtzoT-ZskpwKNB1J7zfkRZrIDJF7QLaesDAMUScuL3lwg_yyHDsSCKD_GplaxymcR57BzBnITdX3qklnQrBZKKdCwFIFEdxX_fMYzCDllyIUwYvtOLleOsaL1StsZCZibf_fU57M6a4FiHtdzu3b3DlOXFq13yocmF0Fy0]--></g></svg>